<?xml version="1.0" encoding="UTF-8" standalone="no"?>
<!-- Created with Inkscape (http://www.inkscape.org/) -->

<svg
   width="210mm"
   height="297mm"
   viewBox="0 0 210 297"
   version="1.1"
   id="svg1"
   xml:space="preserve"
   inkscape:version="1.4 (e7c3feb100, 2024-10-09)"
   sodipodi:docname="people.svg"
   inkscape:export-filename="people.png"
   inkscape:export-xdpi="96"
   inkscape:export-ydpi="96"
   xmlns:inkscape="http://www.inkscape.org/namespaces/inkscape"
   xmlns:sodipodi="http://sodipodi.sourceforge.net/DTD/sodipodi-0.dtd"
   xmlns="http://www.w3.org/2000/svg"
   xmlns:svg="http://www.w3.org/2000/svg"><sodipodi:namedview
     id="namedview1"
     pagecolor="#ffffff"
     bordercolor="#000000"
     borderopacity="0.25"
     inkscape:showpageshadow="2"
     inkscape:pageopacity="0.0"
     inkscape:pagecheckerboard="0"
     inkscape:deskcolor="#d1d1d1"
     inkscape:document-units="mm"
     inkscape:zoom="0.82153307"
     inkscape:cx="58.42735"
     inkscape:cy="463.15847"
     inkscape:window-width="2560"
     inkscape:window-height="1371"
     inkscape:window-x="0"
     inkscape:window-y="32"
     inkscape:window-maximized="1"
     inkscape:current-layer="layer1" /><defs
     id="defs1"><linearGradient
       id="swatch63"
       inkscape:swatch="solid"><stop
         style="stop-color:#000000;stop-opacity:1;"
         offset="0"
         id="stop63" /></linearGradient><inkscape:path-effect
       effect="bspline"
       id="path-effect11"
       is_visible="true"
       lpeversion="1.3"
       weight="33.333333"
       steps="2"
       helper_size="0"
       apply_no_weight="true"
       apply_with_weight="true"
       only_selected="false"
       uniform="false" /><inkscape:path-effect
       effect="bspline"
       id="path-effect10"
       is_visible="true"
       lpeversion="1.3"
       weight="33.333333"
       steps="2"
       helper_size="0"
       apply_no_weight="true"
       apply_with_weight="true"
       only_selected="false"
       uniform="false" /><inkscape:path-effect
       effect="bspline"
       id="path-effect8"
       is_visible="true"
       lpeversion="1.3"
       weight="33.333333"
       steps="2"
       helper_size="0"
       apply_no_weight="true"
       apply_with_weight="true"
       only_selected="false"
       uniform="false" /><inkscape:path-effect
       effect="bspline"
       id="path-effect7"
       is_visible="true"
       lpeversion="1.3"
       weight="33.333333"
       steps="2"
       helper_size="0"
       apply_no_weight="true"
       apply_with_weight="true"
       only_selected="false"
       uniform="false" /><inkscape:path-effect
       effect="bspline"
       id="path-effect6"
       is_visible="true"
       lpeversion="1.3"
       weight="33.333333"
       steps="2"
       helper_size="0"
       apply_no_weight="true"
       apply_with_weight="true"
       only_selected="false"
       uniform="false" /><inkscape:path-effect
       effect="bspline"
       id="path-effect5"
       is_visible="true"
       lpeversion="1.3"
       weight="33.333333"
       steps="2"
       helper_size="0"
       apply_no_weight="true"
       apply_with_weight="true"
       only_selected="false"
       uniform="false" /><inkscape:path-effect
       effect="bspline"
       id="path-effect4"
       is_visible="true"
       lpeversion="1.3"
       weight="33.333333"
       steps="2"
       helper_size="0"
       apply_no_weight="true"
       apply_with_weight="true"
       only_selected="false"
       uniform="false" /><inkscape:path-effect
       effect="bspline"
       id="path-effect3"
       is_visible="true"
       lpeversion="1.3"
       weight="33.333333"
       steps="2"
       helper_size="0"
       apply_no_weight="true"
       apply_with_weight="true"
       only_selected="false"
       uniform="false" /><inkscape:path-effect
       effect="bspline"
       id="path-effect2"
       is_visible="true"
       lpeversion="1.3"
       weight="33.333333"
       steps="2"
       helper_size="0"
       apply_no_weight="true"
       apply_with_weight="true"
       only_selected="false"
       uniform="false" /></defs><g
     inkscape:label="Layer 1"
     inkscape:groupmode="layer"
     id="layer1"><path
       style="fill:none;stroke:#c42e2e;stroke-width:0.278;stroke-dasharray:none;stroke-dashoffset:0;stroke-opacity:0.72822601;fill-opacity:1"
       d="m 14.48991,178.214 c 4.289777,0.41309 8.579553,0.82619 13.409579,1.04862 4.830025,0.22243 10.199976,0.25419 14.64872,-0.81033 4.448743,-1.06453 7.975821,-3.22526 10.359043,-4.5122 2.383222,-1.28694 3.622466,-1.70002 5.115962,-1.89068 1.493497,-0.19066 3.24115,-0.1589 4.607533,0.15886 1.366382,0.31776 2.351422,0.92149 2.732732,1.62057 0.381309,0.69909 0.158883,1.49347 -0.532623,2.17792 -0.691507,0.68445 -1.852038,1.25892 -3.361403,1.59257 -1.509364,0.33365 -3.367501,0.42647 -5.466541,0.40894 -2.09904,-0.0175 -4.438764,-0.14538 -6.520147,-0.47904 -2.081383,-0.33366 -3.904194,-0.87308 -5.329172,-1.32961 -1.424978,-0.45653 -2.452017,-0.83014 -4.059313,-1.36779 -1.607296,-0.53765 -3.794631,-1.23926 -5.791437,-2.56183 -1.996806,-1.32258 -3.802887,-3.26601 -4.56295,-5.87425 -0.760062,-2.60823 -0.474083,-5.8811 0.129673,-9.63073 0.603756,-3.74962 1.525247,-7.97577 2.033664,-11.07396 0.508418,-3.09819 0.603743,-5.06827 0.5243,-7.38795 -0.07944,-2.31968 -0.333646,-4.98883 -0.603745,-7.3244 -0.2701,-2.33556 -0.556078,-4.33741 -0.667295,-6.46643 -0.111216,-2.12903 -0.04767,-4.38509 0.397206,-6.72066 0.444872,-2.33556 1.271034,-4.7505 1.874785,-6.78419 0.603751,-2.03369 0.985057,-3.68601 1.715921,-5.46549 0.730863,-1.77949 1.811229,-3.68602 3.288837,-5.21128 1.477608,-1.525268 3.352361,-2.669185 6.847785,-2.971052 3.495424,-0.301867 8.611275,0.238315 12.170221,1.032729 3.558947,0.794413 5.560803,1.843003 7.27673,3.558933 1.715926,1.71594 3.145824,4.0991 4.30566,7.05432 1.159836,2.95521 2.049547,6.48229 2.843956,9.99359 0.79441,3.51129 1.493475,7.0066 3.209415,10.96277 1.715939,3.95617 4.44863,8.37296 5.878557,10.64495 1.429927,2.272 1.557026,2.3991 2.335555,2.63743 0.778529,0.23832 2.208427,0.58785 3.241157,1.35049 1.032729,0.76263 1.668242,1.93833 1.827119,3.01873 0.158878,1.0804 -0.158875,2.06543 -1.0804,2.87573 -0.921524,0.8103 -2.446747,1.44581 -5.084201,1.28692 -2.637455,-0.15889 -6.386964,-1.11216 -8.960844,-1.89068 -2.57388,-0.77852 -3.972003,-1.38225 -5.43372,-2.74865 -1.461718,-1.36639 -2.986943,-3.49535 -4.369216,-6.05335 -1.382273,-2.55801 -2.621519,-5.54491 -3.447702,-9.10387 -0.826182,-3.55897 -1.239262,-7.68978 -1.541137,-10.91508 -0.301875,-3.2253 -0.492529,-5.54491 -0.190647,-7.75337 0.301882,-2.20847 1.09627,-4.30565 2.224336,-6.00569 1.128067,-1.70003 2.589733,-3.00282 3.844813,-3.14802 1.255081,-0.1452 2.3035,0.86719 3.351936,1.8796"
       id="path2"
       sodipodi:nodetypes="ccccccccccccccccccccccccccccccccccccccccccccc"
       inkscape:original-d="m 14.48991,178.214 c 4.289777,0.41309 8.579554,0.82618 12.869332,1.23928 5.370272,0.0318 10.740223,0.0635 16.110492,0.0953 3.527218,-2.16082 7.054297,-4.32155 10.581447,-6.48233 1.239292,-0.4131 2.478537,-0.82618 3.717806,-1.23927 1.747723,0.0318 3.495376,0.0636 5.243065,0.0953 0.985078,0.60375 1.970117,1.20748 2.955176,1.81122 -0.222438,0.79443 -0.444868,1.58881 -0.6673,2.38322 -1.16058,0.57449 -2.32111,1.14896 -3.481665,1.72344 -1.858175,0.0928 -3.716311,0.18563 -5.574523,0.27846 -2.339868,-0.12787 -4.679592,-0.25573 -7.019465,-0.3836 -1.822892,-0.53945 -3.645703,-1.07887 -5.468555,-1.6183 -1.027107,-0.37363 -2.054145,-0.74724 -3.081255,-1.12088 -2.18748,-0.70166 -4.374815,-1.40327 -6.562282,-2.10492 -1.806147,-1.9435 -3.612229,-3.88693 -5.418343,-5.8304 0.285991,-3.273 0.571971,-6.54587 0.857956,-9.81881 0.921526,-4.22631 1.843014,-8.45246 2.764523,-12.67868 0.09533,-1.97016 0.190654,-3.94024 0.28598,-5.91035 -0.254211,-2.66925 -0.508415,-5.3384 -0.762622,-8.00759 -0.285993,-2.00194 -0.57197,-4.00379 -0.857956,-6.00569 0.06355,-2.25615 0.127103,-4.51221 0.190654,-6.76831 0.826195,-2.41503 1.652357,-4.82997 2.478534,-7.24496 0.381323,-1.65239 0.76263,-3.30471 1.143945,-4.95707 1.08041,-1.90661 2.160775,-3.81314 3.241164,-5.719706 1.87483,-1.14396 3.749582,-2.287878 5.624372,-3.431818 5.116058,0.540205 10.231909,1.080389 15.347863,1.620581 2.001938,1.048634 4.003794,2.097223 6.005692,3.145833 1.429956,2.38326 2.859855,4.76642 4.28978,7.14963 0.889746,3.52722 1.779457,7.0543 2.669185,10.58145 0.699093,3.49544 1.398156,6.99075 2.097233,10.48612 2.732802,4.41697 5.465492,8.83376 8.198241,13.25064 0.127106,0.12711 0.254207,0.25421 0.38131,0.38132 1.429954,0.34954 2.859852,0.69907 4.289779,1.04861 0.635535,1.17573 1.271046,2.35143 1.906567,3.52715 -0.317767,0.98508 -0.635521,1.97011 -0.953283,2.95517 -1.525286,0.63554 -3.050509,1.27105 -4.575763,1.90657 -3.749656,-0.9533 -7.499164,-1.90657 -11.248747,-2.85985 -1.398177,-0.60376 -2.796302,-1.20749 -4.194453,-1.81124 -1.525283,-2.12904 -3.050508,-4.258 -4.575762,-6.387 -1.239292,-2.98701 -2.478537,-5.97391 -3.717806,-8.96086 -0.413096,-4.13098 -0.826177,-8.26179 -1.239266,-12.39269 -0.190661,-2.3197 -0.381315,-4.63931 -0.571973,-6.95897 0.794422,-2.09727 1.588809,-4.19445 2.383213,-6.29167 1.46173,-1.30285 2.9234,-2.60564 4.385098,-3.90847 1.048459,1.01243 2.096879,2.02482 3.145314,3.03723"
       inkscape:path-effect="#path-effect2" /><path
       style="fill:none;stroke:#c42e2e;stroke-width:0.278;stroke-dasharray:none;stroke-dashoffset:0;stroke-opacity:0.72822601;fill-opacity:1"
       d="m 33.543545,110.63447 c 0.6695,-5.14702 1.338998,-10.29402 2.422531,-15.477137 1.083534,-5.183118 2.581039,-10.402119 3.938495,-14.709543 1.357456,-4.307423 2.574784,-7.703027 3.700362,-9.850132 1.125578,-2.147106 2.159338,-3.045608 3.434675,-3.818536 1.275337,-0.772929 2.792165,-1.420238 3.922571,-1.869501 1.130405,-0.449263 1.874329,-0.700458 2.970925,-0.845381 1.096596,-0.144923 2.545796,-0.183568 3.941899,-0.09661 1.396103,0.08695 2.739027,0.299504 3.695523,0.584523 0.956497,0.285018 1.526514,0.642487 2.072396,1.038615 0.545882,0.396127 1.067594,0.830887 1.483043,1.405753 0.415448,0.574867 0.724611,1.289806 0.946827,2.091721 0.222217,0.801915 0.357476,1.690759 0.362305,2.31393 0.0048,0.623172 -0.120769,0.98064 -0.140091,1.32846 -0.01932,0.347819 0.06763,0.685963 -0.03382,1.231847 -0.101449,0.545885 -0.391289,1.299468 -0.541043,1.826024 -0.149755,0.526556 -0.159418,0.826055 0.154587,1.632806 0.314006,0.806751 0.951653,2.120691 1.289807,3.019218 0.338154,0.898526 0.376799,1.381592 0.285012,1.956459 -0.09179,0.574868 -0.313996,1.241498 -0.512059,1.763224 -0.198063,0.521727 -0.371967,0.898517 -0.555539,1.676283 -0.183572,0.777765 -0.376798,1.956446 -0.5652,2.864636 -0.188401,0.90819 -0.371966,1.545836 -0.521721,2.299444 -0.149754,0.753607 -0.265689,1.623129 -0.468509,2.189713 -0.202819,0.566585 -0.492511,0.830208 -0.833519,1.059672 -0.341008,0.229464 -0.733316,0.42476 -1.31981,0.462122 -0.586493,0.03736 -1.367108,-0.08321 -2.204822,-0.407998 -0.837714,-0.324789 -1.732448,-0.853769 -2.65763,-1.563502 -0.925183,-0.709732 -1.880739,-1.600152 -2.519252,-2.827096 -0.638514,-1.226943 -0.95991,-2.790261 -1.621976,-4.392677 -0.662067,-1.602417 -1.664744,-3.243768 -1.710152,-4.314604 -0.04541,-1.070836 0.866452,-1.571115 1.547185,-1.450458 0.680733,0.120658 1.130266,0.862225 1.253809,1.681786 0.123543,0.81956 -0.07892,1.717028 -0.264217,2.440552 -0.185294,0.723523 -0.353397,1.273046 -0.541801,2.384143 -0.188404,1.111098 -0.397088,2.783667 -0.530417,4.136871 -0.133329,1.353203 -0.191296,2.386965 -0.645397,3.396604 -0.4541,1.00964 -1.304296,1.995094 -2.342923,2.574788 -1.038626,0.579693 -2.265615,0.753597 -3.492628,0.927504"
       id="path3"
       inkscape:path-effect="#path-effect3"
       inkscape:original-d="m 33.543545,110.63447 c 0.6695,-5.14702 1.338999,-10.29402 2.008499,-15.441042 1.497565,-5.219213 2.995072,-10.438214 4.492606,-15.657322 1.217377,-3.395739 2.434706,-6.791343 3.652057,-10.187013 1.033804,-0.898541 2.067565,-1.797042 3.101348,-2.695565 1.51689,-0.647335 3.033718,-1.294643 4.550576,-1.941965 0.743953,-0.251206 1.487877,-0.502401 2.231814,-0.753599 1.449255,-0.03865 2.898455,-0.07729 4.347683,-0.115938 1.342978,0.212556 2.685902,0.425106 4.028853,0.637659 0.570042,0.357484 1.14006,0.714952 1.710089,1.07243 0.521735,0.434777 1.043446,0.869538 1.565169,1.304306 0.309174,0.714965 0.618337,1.429904 0.927505,2.144856 0.135263,0.888878 0.270524,1.777722 0.405786,2.666582 -0.125603,0.357483 -0.251203,0.714951 -0.376803,1.072427 0.08696,0.338162 0.173908,0.676307 0.260863,1.01446 -0.289851,0.753616 -0.579691,1.507199 -0.869537,2.260796 -0.0097,0.299514 -0.01932,0.599014 -0.02899,0.898522 0.637675,1.313993 1.27532,2.627935 1.912982,3.941901 0.03865,0.483086 0.07729,0.966152 0.115938,1.449228 -0.222221,0.666658 -0.444429,1.333289 -0.666644,1.999935 -0.173911,0.376807 -0.347816,0.753597 -0.521724,1.130398 -0.193233,1.17873 -0.386461,2.357411 -0.579692,3.536119 -0.18357,0.637673 -0.367135,1.275319 -0.550706,1.912978 -0.11594,0.869555 -0.231876,1.739077 -0.347813,2.608614 -0.289701,0.263632 -0.579393,0.527255 -0.86909,0.790883 -0.392319,0.1953 -0.784627,0.390596 -1.176954,0.5859 -0.78066,-0.120579 -1.561275,-0.24115 -2.341935,-0.361729 -0.894768,-0.529 -1.789502,-1.05798 -2.684254,-1.586971 -0.955613,-0.890474 -1.911168,-1.780895 -2.866781,-2.671368 -0.321415,-1.563413 -0.64281,-3.126731 -0.964226,-4.690146 -1.002718,-1.641418 -2.005395,-3.282769 -3.008091,-4.924151 0.91188,-0.50029 1.82374,-1.000569 2.735643,-1.500872 0.449563,0.741618 0.899096,1.483185 1.348658,2.224801 -0.202476,0.897505 -0.404943,1.794973 -0.607415,2.692461 -0.168115,0.549559 -0.336218,1.099082 -0.504333,1.64864 -0.208692,1.672637 -0.417377,3.345206 -0.626065,5.017809 -0.05797,1.033804 -0.115938,2.067566 -0.173906,3.101348 -0.850233,0.985496 -1.700429,1.97095 -2.550644,2.956428 -1.227037,0.173911 -2.454026,0.347813 -3.681039,0.521721"
       sodipodi:nodetypes="ccccccccccccccccccccccccccccccccccccccc" /><path
       style="fill:none;stroke:#c42e2e;stroke-width:0.278;stroke-dasharray:none;stroke-dashoffset:0;stroke-opacity:0.72822601;fill-opacity:1"
       d="m 59.42662,98.793611 c 0.326361,-0.613164 0.652722,-1.226328 0.935859,-1.930489 0.283137,-0.704161 0.52304,-1.499287 0.762948,-2.294429"
       id="path4"
       inkscape:path-effect="#path-effect4"
       inkscape:original-d="m 59.42662,98.793611 c 0.326361,-0.613164 0.652722,-1.226328 0.979082,-1.839489 0.239914,-0.795161 0.479817,-1.590287 0.719725,-2.385429"
       sodipodi:nodetypes="ccc" /><path
       style="fill:none;stroke:#c42e2e;stroke-width:0.278;stroke-dasharray:none;stroke-dashoffset:0;stroke-opacity:0.72822601;fill-opacity:1"
       d="m 69.510094,109.98675 c 0.494374,-0.70625 0.988748,-1.4125 1.709128,-2.06931 0.720379,-0.65682 1.666725,-1.26417 2.641354,-1.75149 0.97463,-0.48731 1.97748,-0.85455 2.733167,-1.07349 0.755688,-0.21893 1.264178,-0.28956 1.702056,-0.34606 0.437877,-0.0565 0.805107,-0.0989 1.186487,-0.52969 0.381381,-0.43082 0.776872,-1.25005 0.97462,-2.08343 0.197748,-0.83338 0.197748,-1.68085 0.07768,-2.54248 -0.120064,-0.861631 -0.360183,-1.737359 -0.932252,-2.782615 -0.572068,-1.045256 -1.476045,-2.259975 -1.97748,-3.319352 -0.501435,-1.059377 -0.600307,-1.963355 -0.593244,-2.987424 0.0071,-1.024068 0.12006,-2.168161 0.656816,-3.58067 0.536755,-1.412508 1.497231,-3.09334 2.259983,-4.355634 0.762751,-1.262293 1.327737,-2.105981 2.041714,-2.902497 0.713976,-0.796517 1.576894,-1.54581 2.290251,-2.014429 0.713358,-0.468619 1.277113,-0.656537 2.294118,-0.800243 1.017006,-0.143707 2.487192,-0.243193 4.311166,-0.121593 1.823974,0.1216 4.00162,0.464276 5.57686,0.674307 1.575241,0.210032 2.547994,0.287409 3.410235,0.635625 0.862243,0.348216 1.613913,0.96724 2.227433,1.895811 0.61351,0.92857 1.08883,2.166621 1.17726,3.10071 0.0884,0.934088 -0.21003,1.56417 -0.52507,1.79631 -0.31505,0.232139 -0.64667,0.06633 -0.88434,0.221091 -0.23767,0.154763 -0.38137,0.630086 -0.45323,1.370732 -0.0718,0.740646 -0.0718,1.746563 -0.0221,2.45404 0.0497,0.707477 0.14923,1.116473 0.42559,1.978718 0.27636,0.862245 0.72958,2.177676 0.95065,2.995695 0.22108,0.818019 0.21002,1.138583 -0.0608,1.50338 -0.27084,0.364797 -0.80143,0.773794 -1.08884,1.155167 -0.28741,0.381373 -0.33162,0.735101 -0.37584,1.376258 -0.0442,0.641157 -0.0884,1.569695 -0.22109,2.420883 -0.13265,0.85118 -0.35373,1.62496 -0.69642,2.19426 -0.342687,0.5693 -0.806958,0.93409 -1.481275,1.17175 -0.674318,0.23767 -1.558643,0.34821 -2.420882,0.006 -0.862239,-0.34269 -1.702344,-1.13858 -2.553531,-2.28271 -0.851187,-1.14413 -1.713402,-2.636424 -2.415353,-4.079018 -0.701951,-1.442594 -1.243598,-2.835401 -1.553118,-3.874508 -0.30952,-1.039107 -0.386899,-1.724458 -0.226608,-2.249538 0.16029,-0.525081 0.558237,-0.889865 1.04463,-0.779316 0.486393,0.110549 1.061201,0.696413 1.420466,1.414947 0.359264,0.718534 0.502968,1.569696 0.182388,3.321821 -0.320581,1.752125 -1.105418,4.405095 -1.602861,6.013492 -0.497443,1.6084 -0.707471,2.17216 -1.691317,2.44299 -0.983845,0.27083 -2.741437,0.24873 -4.112174,0.11608 -1.370738,-0.13265 -2.354545,-0.37584 -3.178095,-0.33162 -0.82355,0.0442 -1.48679,0.37584 -2.150045,0.70747"
       id="path5"
       inkscape:path-effect="#path-effect5"
       inkscape:original-d="m 69.510094,109.98675 c 0.494372,-0.70625 0.988745,-1.4125 1.483117,-2.11874 0.946388,-0.60739 1.892739,-1.21474 2.839109,-1.82212 1.002887,-0.36725 2.005737,-0.73449 3.008606,-1.10174 0.508508,-0.0706 1.016995,-0.14125 1.525492,-0.21187 0.367255,-0.0424 0.734494,-0.0847 1.101743,-0.12713 0.395505,-0.81926 0.790996,-1.63849 1.186493,-2.45773 0,-0.84752 0,-1.69499 0,-2.542488 -0.240128,-0.875763 -0.480248,-1.751491 -0.720371,-2.627236 -0.904015,-1.214765 -1.80799,-2.429486 -2.711984,-3.644228 -0.09888,-0.904012 -0.19775,-1.80799 -0.296622,-2.711984 0.113001,-1.144143 0.225997,-2.288236 0.338995,-3.432355 0.960514,-1.680898 1.920989,-3.36173 2.881484,-5.042596 0.565007,-0.843722 1.129993,-1.687409 1.694992,-2.531115 0.862955,-0.749327 1.725872,-1.498621 2.588811,-2.247932 0.563777,-0.187925 1.127532,-0.375843 1.691298,-0.563766 1.470245,-0.09949 2.940431,-0.198977 4.41065,-0.298466 2.177729,0.342688 4.355375,0.685364 6.533062,1.028047 0.972794,0.07738 1.945547,0.15476 2.918322,0.232137 0.751709,0.619051 1.503379,1.238078 2.255069,1.857116 0.47534,1.238102 0.95066,2.476153 1.42599,3.714228 -0.29846,0.630106 -0.59692,1.260187 -0.89539,1.890279 -0.33163,-0.165817 -0.66325,-0.331629 -0.99488,-0.497443 -0.14371,0.475342 -0.28741,0.950666 -0.43112,1.425998 0,1.005959 0,2.011876 0,3.017814 0.0995,0.409014 0.19898,0.818012 0.29847,1.227021 0.45323,1.315482 0.90645,2.630911 1.35967,3.946369 -0.0111,0.32058 -0.0221,0.641146 -0.0332,0.961721 -0.53062,0.409014 -1.06121,0.818012 -1.59181,1.227021 -0.0442,0.353742 -0.0884,0.707472 -0.13265,1.061209 -0.0442,0.928574 -0.0884,1.857113 -0.13265,2.785669 -0.22109,0.77381 -0.44217,1.54759 -0.66326,2.32139 -0.464287,0.3648 -0.928556,0.72959 -1.392836,1.09438 -0.884357,0.11054 -1.768682,0.22108 -2.65302,0.33162 -0.840142,-0.79592 -1.680247,-1.59181 -2.52037,-2.38772 -0.862251,-1.49235 -1.724465,-2.984644 -2.586697,-4.476968 -0.541668,-1.392864 -1.083315,-2.785671 -1.624975,-4.178509 -0.07738,-0.685376 -0.15476,-1.370727 -0.23214,-2.05609 0.397962,-0.364797 0.795909,-0.729581 1.193861,-1.094372 0.574833,0.585888 1.149641,1.171752 1.724461,1.757627 0.143711,0.851193 0.287414,1.702355 0.43112,2.553533 -0.784868,2.653072 -1.569704,5.306042 -2.354556,7.959059 -0.210034,0.56378 -0.420061,1.12754 -0.630092,1.6913 -1.757662,-0.0221 -3.515254,-0.0442 -5.272881,-0.0663 -0.983848,-0.2432 -1.967656,-0.48639 -2.951486,-0.72959 -0.663268,0.33164 -1.326509,0.66326 -1.989764,0.99489" /><path
       style="fill:none;stroke:#c42e2e;stroke-width:0.278;stroke-dasharray:none;stroke-dashoffset:0;stroke-opacity:0.72822601;fill-opacity:1"
       d="m 79.124228,104.52653 c 0.478366,-0.0718 0.956745,-0.14367 1.691242,-0.11243 0.734497,0.0312 1.725078,0.16556 2.79964,0.6105 1.074562,0.44494 2.233034,1.20046 3.21525,2.05676 0.982217,0.85629 1.788114,1.81329 2.417737,2.83748 0.629624,1.02419 1.082942,2.11551 1.662198,3.55106 0.579257,1.43555 1.284418,3.21524 1.930833,4.69276 0.646415,1.47752 1.234045,2.65278 2.018643,3.8275 0.784599,1.17471 1.766092,2.34878 2.849689,3.36786 1.083596,1.01908 2.269168,1.88306 3.23914,2.56364 0.96997,0.68059 1.72424,1.17773 2.7478,1.73692 1.02356,0.55919 2.31636,1.18041 3.90302,1.79324 1.58666,0.61284 3.46708,1.21726 5.91843,2.63602 2.45135,1.41877 5.47346,3.65177 7.07689,5.01175 1.60343,1.35998 1.78812,1.84688 1.35157,2.74659 -0.43654,0.8997 -1.49428,2.21215 -2.29634,2.93753 -0.80206,0.72538 -1.34839,0.86366 -2.49012,0.6118 -1.14173,-0.25185 -2.87877,-0.89381 -3.99915,-1.13085 -1.12039,-0.23704 -1.62408,-0.0691 -3.68088,-0.71557 -2.05679,-0.64643 -5.66653,-2.10711 -8.47045,-3.04735 -2.803929,-0.94023 -4.801883,-1.35997 -7.21965,-2.57726 -2.417767,-1.21728 -5.255197,-3.23202 -7.421104,-6.16189 -2.165907,-2.92987 -3.660171,-6.77466 -4.801888,-9.82204 -1.141718,-3.04738 -1.930826,-5.29718 -1.964398,-7.58902 -0.03357,-2.29184 0.688376,-4.62558 1.561457,-6.05272 0.873081,-1.42715 1.897243,-1.94762 2.848052,-2.0169 0.950809,-0.0693 1.828211,0.31264 2.70563,0.69457"
       id="path6"
       inkscape:path-effect="#path-effect6"
       inkscape:original-d="m 79.124228,104.52653 c 0.478371,-0.0718 0.956745,-0.14367 1.435117,-0.21551 0.990622,0.13432 1.981203,0.26864 2.971803,0.40296 1.158523,0.75556 2.316999,1.51108 3.475498,2.26663 0.805931,0.95704 1.611828,1.91404 2.417741,2.87106 0.453335,1.09136 0.906653,2.18268 1.359977,3.27402 0.705189,1.77976 1.410348,3.55945 2.115521,5.33917 0.587655,1.17532 1.175287,2.35058 1.762932,3.52587 0.981553,1.17414 1.963047,2.34821 2.944598,3.52235 1.185643,0.86402 2.371217,1.72799 3.556855,2.59202 0.7543,0.49715 1.50857,0.99428 2.26285,1.49143 1.29284,0.62124 2.58564,1.24245 3.87845,1.86368 1.88051,0.60445 3.76093,1.20887 5.6414,1.8133 3.02223,2.2331 6.04434,4.4661 9.06651,6.69915 0.1847,0.48691 0.36938,0.97381 0.55407,1.46072 -1.05778,1.3125 -2.11552,2.62495 -3.17328,3.93743 -0.54636,0.13828 -1.09269,0.27656 -1.63905,0.41484 -1.7371,-0.64199 -3.47414,-1.28395 -5.21121,-1.92593 -0.5037,0.1679 -1.00739,0.3358 -1.51109,0.50369 -3.60989,-1.46074 -7.21963,-2.92143 -10.82945,-4.38215 -1.99803,-0.41975 -3.995984,-0.83949 -5.993974,-1.25924 -2.837543,-2.01482 -5.674974,-4.02956 -8.512458,-6.04434 -1.494327,-3.84496 -2.988593,-7.68975 -4.482891,-11.53463 -0.789138,-2.24988 -1.578245,-4.49968 -2.367367,-6.74952 0.721976,-2.33384 1.443926,-4.66758 2.165889,-7.00137 1.024202,-0.52049 2.048362,-1.04097 3.072543,-1.56146 0.877438,0.38193 1.754839,0.76385 2.632257,1.14578"
       sodipodi:nodetypes="ccccccccccccccccccccccccccc" /><path
       style="fill:none;stroke:#c42e2e;stroke-width:0.278;stroke-dasharray:none;stroke-dashoffset:0;stroke-opacity:0.72822601;fill-opacity:1"
       d="m 96.276646,103.74458 c -0.209286,0.81389 -0.418573,1.62778 -0.84878,2.20913 -0.430207,0.58136 -1.081303,0.93016 -1.476624,1.44175 -0.395321,0.5116 -0.534843,1.18595 -0.744132,1.77893 -0.209288,0.59298 -0.488331,1.10456 -1.046434,1.44174 -0.558104,0.33719 -1.395231,0.49996 -2.232377,0.66274"
       id="path7"
       inkscape:path-effect="#path-effect7"
       inkscape:original-d="m 96.276646,103.74458 c -0.209286,0.81389 -0.418574,1.62778 -0.627859,2.44167 -0.651127,0.34882 -1.302224,0.69762 -1.953337,1.04643 -0.139528,0.67438 -0.279051,1.34873 -0.418576,2.02309 -0.279051,0.5116 -0.558094,1.02318 -0.837142,1.53477 -0.83716,0.16278 -1.674288,0.32555 -2.511433,0.48833" /><path
       style="fill:none;stroke:#c42e2e;stroke-width:0.278;stroke-dasharray:none;stroke-dashoffset:0;stroke-opacity:0.72822601;fill-opacity:1"
       d="m 94.99449,106.40109 c 0.845955,0.25337 1.691917,0.50675 2.859036,1.83104 1.16712,1.32429 2.655344,3.71941 4.236634,6.18436 1.58129,2.46494 3.25554,4.99958 4.52289,7.04595 1.26735,2.04636 2.12773,3.60435 3.66252,5.67398 1.53478,2.06963 3.74387,4.65077 5.61584,6.44134 1.87196,1.79057 3.40669,2.79047 5.16238,4.33688 1.7557,1.54641 3.73225,3.63923 4.7438,4.95308 1.01155,1.31386 1.05806,1.84869 0.77901,2.98815 -0.27906,1.13947 -0.88365,2.88348 -1.33711,3.9648 -0.45346,1.08131 -0.75575,1.49988 -1.23246,0.96502 -0.47672,-0.53486 -1.12782,-2.02308 -2.05101,-3.05556 -0.9232,-1.03248 -2.11836,-1.60912 -2.82166,-1.90452 -0.7033,-0.2954 -0.91452,-0.30946 -1.12579,-0.32353"
       id="path8"
       inkscape:path-effect="#path-effect8"
       inkscape:original-d="m 94.99449,106.40109 c 0.845956,0.25337 1.691916,0.50675 2.537871,0.76012 1.488284,2.39521 2.976509,4.79033 4.464769,7.18549 1.67432,2.53473 3.34857,5.06937 5.02285,7.60405 0.86042,1.55805 1.7208,3.11604 2.5812,4.67406 2.20917,2.58124 4.41826,5.16238 6.62739,7.74357 1.5348,0.99995 3.06953,1.99985 4.60429,2.99977 1.97663,2.0929 3.95318,4.18572 5.92977,6.27858 0.0465,0.53485 0.093,1.06968 0.13953,1.60453 -0.60462,1.74408 -1.20921,3.48809 -1.81382,5.23214 -0.30231,0.41858 -0.6046,0.83715 -0.9069,1.25572 -0.65113,-1.48829 -1.30223,-2.97651 -1.95334,-4.46477 -1.19528,-0.5767 -2.39044,-1.15334 -3.58577,-1.73007 -0.21127,-0.0141 -0.42249,-0.0282 -0.63376,-0.0422"
       sodipodi:nodetypes="cccccccccccccc" /><path
       style="fill:none;stroke:#c42e2e;stroke-width:0.278;stroke-dasharray:none;stroke-dashoffset:0;stroke-opacity:0.72822601;fill-opacity:1"
       d="m 122.11929,141.3025 c 0.39989,0.0144 0.79978,0.0289 1.32772,0.18436 0.52794,0.1555 1.18385,0.45204 1.83979,0.7486"
       id="path10"
       inkscape:path-effect="#path-effect10"
       inkscape:original-d="m 122.11929,141.3025 c 0.39989,0.0144 0.79978,0.0288 1.1997,0.0433 0.65596,0.29656 1.31187,0.5931 1.96781,0.88966"
       sodipodi:nodetypes="ccc" /><path
       style="fill:none;stroke:#c42e2e;stroke-width:0.278;stroke-dasharray:none;stroke-dashoffset:0;stroke-opacity:0.72822601;fill-opacity:1"
       d="m 123.4157,149.90438 c 0.15554,0.92531 0.31107,1.85063 0.87595,3.36216 0.56488,1.51154 1.53907,3.60922 2.26045,5.72727 0.72138,2.11806 1.18991,4.25637 1.52818,6.42453 0.33826,2.16816 0.54623,4.36604 2.17705,6.03863 1.63082,1.67258 4.68438,2.81978 9.68842,3.59583 5.00404,0.77605 11.95824,1.18092 16.9835,1.32382 5.02525,0.1429 8.1213,0.0238 11.21741,-0.0953"
       id="path11"
       inkscape:path-effect="#path-effect11"
       inkscape:original-d="m 123.4157,149.90438 c 0.15553,0.92531 0.31107,1.85063 0.46661,2.77594 0.97422,2.09776 1.9484,4.19544 2.92261,6.29315 0.46855,2.1384 0.93709,4.27671 1.40564,6.41506 0.20798,2.19797 0.41595,4.39585 0.62392,6.59378 3.05367,1.14725 6.10723,2.29444 9.16083,3.44166 6.95448,0.40489 13.90868,0.80976 20.86302,1.21463 3.09617,-0.11908 6.19222,-0.23816 9.28833,-0.35724"
       sodipodi:nodetypes="cccccccc" /></g></svg>
